<?xml version="1.0" standalone="no"?>
<!DOCTYPE svg PUBLIC "-//W3C//DTD SVG 20010904//EN"
 "http://www.w3.org/TR/2001/REC-SVG-20010904/DTD/svg10.dtd">
<svg version="1.0" xmlns="http://www.w3.org/2000/svg"
 width="736.000000pt" height="552.000000pt" viewBox="0 0 736.000000 552.000000"
 preserveAspectRatio="xMidYMid meet">

<g transform="translate(0.000000,552.000000) scale(0.100000,-0.100000)"
fill="#000000" stroke="none">
<path d="M0 2760 l0 -2760 3680 0 3680 0 0 2760 0 2760 -3680 0 -3680 0 0
-2760z m3773 976 c53 -16 158 -75 433 -243 213 -130 262 -172 311 -265 26 -50
28 -62 31 -203 l3 -150 -60 -37 c-34 -21 -63 -38 -65 -38 -3 0 -6 64 -8 143
-3 131 -5 146 -31 198 -54 111 -121 168 -388 330 -244 147 -414 217 -531 219
-19 1 -17 3 12 17 96 43 210 54 293 29z m-283 -137 c25 -5 84 -30 131 -54 90
-46 384 -221 479 -285 160 -109 213 -218 208 -426 l-3 -107 -60 -38 c-33 -21
-63 -38 -66 -38 -4 -1 -8 60 -8 135 -3 256 -50 315 -431 541 -290 171 -383
213 -484 213 l-51 1 37 20 c45 23 132 48 173 48 17 0 50 -4 75 -10z m-206
-164 c118 -41 511 -273 619 -364 117 -98 157 -195 157 -376 l0 -113 -66 -41
c-36 -22 -67 -41 -68 -41 -2 0 -1 42 1 93 6 109 -8 192 -43 265 -43 87 -113
149 -289 253 -329 196 -342 203 -407 207 -75 6 -135 -17 -181 -67 -65 -72 -68
-98 -65 -478 l3 -338 28 -56 c15 -31 46 -77 68 -103 81 -91 484 -337 601 -367
57 -14 128 -5 158 19 21 17 19 19 -152 117 -410 234 -491 296 -546 413 -24 51
-27 68 -27 172 0 68 4 116 10 118 6 2 13 12 17 23 4 11 12 18 17 15 4 -3 16 3
26 14 14 16 20 17 27 8 5 -8 8 0 9 22 1 19 5 -21 9 -90 9 -146 30 -213 92
-291 45 -58 102 -96 348 -236 238 -135 279 -157 285 -151 3 2 8 31 11 64 l6
59 -108 64 c-348 203 -405 248 -457 359 -31 64 -32 73 -35 210 -3 128 -2 142
13 142 10 0 34 14 55 30 21 17 41 30 44 30 3 0 6 -35 6 -77 1 -264 52 -346
314 -502 84 -50 157 -91 162 -91 6 0 36 16 68 35 32 19 61 35 63 35 3 0 3 -82
1 -182 -3 -180 -4 -184 -35 -249 -41 -89 -92 -142 -171 -181 -61 -30 -75 -33
-162 -33 -93 0 -97 1 -190 47 -107 52 -322 180 -449 266 -101 68 -150 123
-199 221 l-37 75 -3 384 c-2 329 -1 391 13 432 38 113 122 199 234 237 85 29
139 28 225 -2z m1245 -1129 c-25 -69 -81 -140 -143 -185 l-48 -33 22 42 c49
96 53 118 59 319 l6 194 60 37 60 37 3 -178 c2 -159 0 -183 -19 -233z m-219
114 c0 -264 -32 -339 -202 -469 -15 -11 -13 -3 7 44 40 88 53 166 61 342 l7
162 56 35 c31 19 59 35 64 35 4 1 7 -66 7 -149z"/>
</g>
</svg>
